<svg xmlns="http://www.w3.org/2000/svg" viewBox="0 0 227.08 96.53"><defs><style>.cls-1,.cls-2{fill:#fff;}.cls-2{opacity:0.65;}</style></defs><g id="text"><path class="cls-1" d="M152,106.7h-5.36V74.56H152v5.55a16.23,16.23,0,0,1,3.29-3.88,12.43,12.43,0,0,1,3.34-1.92,11.06,11.06,0,0,1,3.87-.64,11.72,11.72,0,0,1,5.42,1.23,8.79,8.79,0,0,1,3.73,3.64c.88,1.61,1.32,4.17,1.32,7.7V106.7h-5.35V88.54a22.71,22.71,0,0,0-.57-6.11,5.06,5.06,0,0,0-2.25-2.82,6.81,6.81,0,0,0-3.62-1A8.11,8.11,0,0,0,156.68,80a9.85,9.85,0,0,0-3.41,3.85A15.65,15.65,0,0,0,152,90.9Z" transform="translate(-36.61 -40.73)"/><path class="cls-1" d="M194.66,107.59a15,15,0,0,1-10.75-4.27q-4.44-4.27-4.44-12.7t4.44-12.68a15.63,15.63,0,0,1,21.47,0q4.44,4.28,4.44,12.68t-4.44,12.7A14.92,14.92,0,0,1,194.66,107.59Zm0-4.46a8.32,8.32,0,0,0,7-3.44,14.54,14.54,0,0,0,2.63-9.07,14.52,14.52,0,0,0-2.63-9.05,8.77,8.77,0,0,0-13.93,0,14.52,14.52,0,0,0-2.63,9.05,14.54,14.54,0,0,0,2.63,9.07A8.34,8.34,0,0,0,194.66,103.13Z" transform="translate(-36.61 -40.73)"/><path class="cls-1" d="M214.74,98.21h5.36v.12a4.37,4.37,0,0,0,1.57,3.44q1.56,1.37,5.3,1.36a8.32,8.32,0,0,0,5.33-1.61,4.73,4.73,0,0,0,2-3.8c0-2-1.34-3.37-4-4.2l-2.72-.83-1.8-.58L222.13,91q-6.33-2.33-6.32-7.74a8.92,8.92,0,0,1,3.06-6.68q3.06-2.87,9.11-2.87t8.47,2.46A7.47,7.47,0,0,1,239,81.58v.12h-5.38v-.12A2.82,2.82,0,0,0,232,79.05a8.54,8.54,0,0,0-4.29-.92,7.76,7.76,0,0,0-4.89,1.33,4.09,4.09,0,0,0-1.7,3.3,3,3,0,0,0,1.1,2.43,10.42,10.42,0,0,0,3.71,1.69l2.57.71,1.86.55a45,45,0,0,1,4.85,1.58,12.21,12.21,0,0,1,1.93,1.18,6.43,6.43,0,0,1,2,2.51,8.59,8.59,0,0,1,.64,3.42,10.19,10.19,0,0,1-3.25,7.65q-3.25,3.12-9.5,3.11a15.91,15.91,0,0,1-6.56-1.18,10.34,10.34,0,0,1-4.15-3.26,7.89,7.89,0,0,1-1.55-4.82Z" transform="translate(-36.61 -40.73)"/><path class="cls-1" d="M148.83,124.32l-2.61-9.13h1.6l1.6,5.68.21,1.35h.18l.24-1.35,1.62-5.68h1.52l1.9,5.66.28,1.37h.14l.22-1.37,1.6-5.66h1.44l-2.6,9.13h-1.54l-2-6-.23-1.32h-.11l-.24,1.32-1.72,6Z" transform="translate(-36.61 -40.73)"/><path class="cls-1" d="M166.06,122h1.52v.08a2.09,2.09,0,0,1-.47,1.24,3,3,0,0,1-1.26.95,4.54,4.54,0,0,1-1.79.33,3.87,3.87,0,0,1-3.16-1.35,5.79,5.79,0,0,1,.06-6.9,4.06,4.06,0,0,1,4.89-.94,3.21,3.21,0,0,1,1.31,1.41,6,6,0,0,1,.48,2.65v.5h-6.35a3.7,3.7,0,0,0,.77,2.41,2.56,2.56,0,0,0,2.12,1,2.14,2.14,0,0,0,1.43-.39,1.11,1.11,0,0,0,.45-.86Zm-4.67-3.17h4.79v-.18a2.89,2.89,0,0,0-.29-1.24,2.05,2.05,0,0,0-.83-.89,2.53,2.53,0,0,0-1.22-.29,2.15,2.15,0,0,0-1.53.68A3.41,3.41,0,0,0,161.39,118.8Z" transform="translate(-36.61 -40.73)"/><path class="cls-1" d="M176.83,124.32h-1.51c0-.3.05-.67.06-1.1s0-.78.05-1,0-.46,0-.55V111.13H177v5.64a4.73,4.73,0,0,1,.93-1.12,3,3,0,0,1,1-.53,3.22,3.22,0,0,1,1.08-.18,3.45,3.45,0,0,1,1.89.56,3.73,3.73,0,0,1,1.33,1.7,6.38,6.38,0,0,1,.48,2.53,5.71,5.71,0,0,1-1,3.46,3.23,3.23,0,0,1-2.78,1.38,3.55,3.55,0,0,1-1.09-.17,2.79,2.79,0,0,1-.91-.5,4.2,4.2,0,0,1-.88-1.18l-.05.66C176.89,123.75,176.86,124.06,176.83,124.32Zm.13-4.56a4.56,4.56,0,0,0,.66,2.55,2.12,2.12,0,0,0,1.86,1,2.28,2.28,0,0,0,1.83-.88,4.12,4.12,0,0,0,.72-2.64,4.17,4.17,0,0,0-.74-2.85,2.32,2.32,0,0,0-1.77-.79,2.3,2.3,0,0,0-1.34.43,2.7,2.7,0,0,0-.92,1.3A5.76,5.76,0,0,0,177,119.76Z" transform="translate(-36.61 -40.73)"/><path class="cls-1" d="M191.48,122H193v.08a2.09,2.09,0,0,1-.47,1.24,3,3,0,0,1-1.26.95,4.54,4.54,0,0,1-1.79.33,3.85,3.85,0,0,1-3.16-1.35,5.75,5.75,0,0,1,.06-6.9,3.82,3.82,0,0,1,3-1.38,3.76,3.76,0,0,1,1.84.44,3.11,3.11,0,0,1,1.31,1.41,5.8,5.8,0,0,1,.49,2.65v.5h-6.35a3.65,3.65,0,0,0,.77,2.41,2.56,2.56,0,0,0,2.12,1,2.14,2.14,0,0,0,1.43-.39,1.11,1.11,0,0,0,.45-.86Zm-4.68-3.17h4.8v-.18a2.76,2.76,0,0,0-.3-1.24,2,2,0,0,0-.82-.89,2.54,2.54,0,0,0-1.23-.29,2.15,2.15,0,0,0-1.52.68A3.48,3.48,0,0,0,186.8,118.8Z" transform="translate(-36.61 -40.73)"/><path class="cls-1" d="M196.8,124.32h-1.52V111.13h1.52Z" transform="translate(-36.61 -40.73)"/><path class="cls-1" d="M199.21,113.16v-1.53h1.52v1.53Zm0,2h1.52v9.13h-1.52Z" transform="translate(-36.61 -40.73)"/><path class="cls-1" d="M209,122h1.52v.08a2,2,0,0,1-.47,1.24,3,3,0,0,1-1.25.95,4.59,4.59,0,0,1-1.8.33,3.87,3.87,0,0,1-3.16-1.35,5.77,5.77,0,0,1,.07-6.9,4,4,0,0,1,4.88-.94,3.16,3.16,0,0,1,1.31,1.41,6,6,0,0,1,.48,2.65v.5H204.2a3.7,3.7,0,0,0,.77,2.41,2.56,2.56,0,0,0,2.13,1,2.13,2.13,0,0,0,1.42-.39,1.11,1.11,0,0,0,.45-.86Zm-4.67-3.17h4.8v-.18a2.76,2.76,0,0,0-.3-1.24,2.05,2.05,0,0,0-.83-.89,2.5,2.5,0,0,0-1.22-.29,2.18,2.18,0,0,0-1.53.68A3.47,3.47,0,0,0,204.3,118.8Z" transform="translate(-36.61 -40.73)"/><path class="cls-1" d="M215.48,124.32l-3.72-9.13h1.62l2.94,7.16,3-7.16h1.5L217,124.32Z" transform="translate(-36.61 -40.73)"/><path class="cls-1" d="M228.05,122h1.52v.08a2.09,2.09,0,0,1-.47,1.24,3,3,0,0,1-1.26.95,4.54,4.54,0,0,1-1.79.33,3.87,3.87,0,0,1-3.16-1.35,5.79,5.79,0,0,1,.06-6.9,4.06,4.06,0,0,1,4.89-.94,3.16,3.16,0,0,1,1.31,1.41,6,6,0,0,1,.48,2.65v.5h-6.35a3.7,3.7,0,0,0,.77,2.41,2.56,2.56,0,0,0,2.13,1,2.13,2.13,0,0,0,1.42-.39,1.11,1.11,0,0,0,.45-.86Zm-4.67-3.17h4.79v-.18a2.75,2.75,0,0,0-.29-1.24,2.05,2.05,0,0,0-.83-.89,2.53,2.53,0,0,0-1.22-.29,2.18,2.18,0,0,0-1.53.68A3.41,3.41,0,0,0,223.38,118.8Z" transform="translate(-36.61 -40.73)"/><path class="cls-1" d="M237.43,113.16v-1.53H239v1.53Zm0,2H239v9.13h-1.52Z" transform="translate(-36.61 -40.73)"/><path class="cls-1" d="M242.88,124.32h-1.52v-9.13h1.52v1.58a4.59,4.59,0,0,1,.94-1.11,3.36,3.36,0,0,1,1-.54,3.12,3.12,0,0,1,1.09-.18,3.21,3.21,0,0,1,1.54.35,2.45,2.45,0,0,1,1.06,1,4.77,4.77,0,0,1,.38,2.19v5.81h-1.52v-5.16a6.83,6.83,0,0,0-.16-1.74,1.48,1.48,0,0,0-.64-.8,2,2,0,0,0-1-.29,2.34,2.34,0,0,0-1.28.39,2.86,2.86,0,0,0-1,1.1,4.36,4.36,0,0,0-.37,2Z" transform="translate(-36.61 -40.73)"/><path class="cls-1" d="M253.54,124.32h-2.16v-2.16h2.16Z" transform="translate(-36.61 -40.73)"/><path class="cls-1" d="M258.61,124.32h-2.16v-2.16h2.16Z" transform="translate(-36.61 -40.73)"/><path class="cls-1" d="M263.68,124.32h-2.15v-2.16h2.15Z" transform="translate(-36.61 -40.73)"/></g><g id="i"><path class="cls-2" d="M249.63,90.89l-1.08-.84A19,19,0,0,1,253,86.21a7.38,7.38,0,0,1,3.44-1.14,1.81,1.81,0,0,1,1.2.35,1.14,1.14,0,0,1,.42.93,45.89,45.89,0,0,1-1.59,6q-2.6,8.72-2.59,10.5a.93.93,0,0,0,.17.58.45.45,0,0,0,.37.23q.78,0,4-3l1,.93a31.94,31.94,0,0,1-4.91,4,5.45,5.45,0,0,1-2.52.88,1.79,1.79,0,0,1-1.37-.54,2.13,2.13,0,0,1-.5-1.49q0-3.08,3.68-15a3.67,3.67,0,0,0,.17-1c0-.32-.15-.49-.44-.49a2.19,2.19,0,0,0-1.12.39A27.22,27.22,0,0,0,249.63,90.89Zm9.64-16.24a1.65,1.65,0,0,1,1.25.5,1.74,1.74,0,0,1,.49,1.29,2.74,2.74,0,0,1-.75,1.9,2.23,2.23,0,0,1-1.68.82,1.58,1.58,0,0,1-1.22-.52,1.85,1.85,0,0,1-.49-1.35,2.63,2.63,0,0,1,.71-1.87A2.23,2.23,0,0,1,259.27,74.65Z" transform="translate(-36.61 -40.73)"/></g><g id="bottom-layer"><path class="cls-2" d="M109.42,57.49a8.62,8.62,0,0,1,10.12,6.79l9.71,49.33a8.62,8.62,0,0,1-6.8,10.13l-49.34,9.71A8.65,8.65,0,0,1,63,126.65L53.27,77.32a8.63,8.63,0,0,1,6.8-10.13Z" transform="translate(-36.61 -40.73)"/></g><g id="middle-layer"><path class="cls-2" d="M109.25,71.37a8.61,8.61,0,0,1,6.36,10.4l-11.77,48.88A8.63,8.63,0,0,1,93.44,137l-48.9-11.77a8.64,8.64,0,0,1-6.37-10.41L50,66a8.61,8.61,0,0,1,10.4-6.37Z" transform="translate(-36.61 -40.73)"/></g><g id="top-layer"><path class="cls-2" d="M122.46,78.81a8.63,8.63,0,0,1,0,12.19L86.9,126.55a8.61,8.61,0,0,1-12.19,0L39.13,91a8.62,8.62,0,0,1,0-12.19L74.71,43.25a8.61,8.61,0,0,1,12.19,0Z" transform="translate(-36.61 -40.73)"/></g></svg>